<svg width="10" height="10" viewBox="0 0 10 10" fill="none" xmlns="http://www.w3.org/2000/svg">
<path fill-rule="evenodd" clip-rule="evenodd" d="M0.71995 0.781676C0.86057 0.641226 1.0512 0.562336 1.24995 0.562336C1.4487 0.562336 1.63932 0.641226 1.77995 0.781676L4.99995 4.00168L8.21995 0.781676C8.28865 0.707986 8.37145 0.648886 8.46345 0.607896C8.55545 0.566906 8.65475 0.544866 8.75545 0.543086C8.85615 0.541306 8.95615 0.559836 9.04955 0.597556C9.14295 0.635276 9.22775 0.691416 9.29895 0.762636C9.37025 0.833856 9.42635 0.918696 9.46405 1.01208C9.50175 1.10547 9.52035 1.2055 9.51855 1.3062C9.51675 1.40691 9.49475 1.50622 9.45375 1.59822C9.41275 1.69022 9.35365 1.77302 9.27995 1.84168L6.05995 5.06168L9.27995 8.28168C9.35365 8.35038 9.41275 8.43318 9.45375 8.52518C9.49475 8.61718 9.51675 8.71648 9.51855 8.81718C9.52035 8.91788 9.50175 9.01788 9.46405 9.11128C9.42635 9.20468 9.37025 9.28948 9.29895 9.36068C9.22775 9.43198 9.14295 9.48808 9.04955 9.52578C8.95615 9.56348 8.85615 9.58208 8.75545 9.58028C8.65475 9.57848 8.55545 9.55648 8.46345 9.51548C8.37145 9.47448 8.28865 9.41538 8.21995 9.34168L4.99995 6.12168L1.77995 9.34168C1.63777 9.47418 1.44972 9.54628 1.25542 9.54288C1.06112 9.53938 0.87574 9.46068 0.73832 9.32328C0.60091 9.18588 0.5222 9.00048 0.51877 8.80618C0.51534 8.61188 0.58747 8.42388 0.71995 8.28168L3.93995 5.06168L0.71995 1.84168C0.5795 1.70106 0.50061 1.51043 0.50061 1.31168C0.50061 1.11293 0.5795 0.922306 0.71995 0.781676Z" fill="#3F3F3F"/>
</svg>
